# xmcd CD database file
#
# Track frame offsets:
#	150
#	17177
#	33997
#	48747
#	70635
#	91777
#	109062
#	124497
#	141937
#	159550
#	177312
#	193667
#	212082
#	231550
#
# Disc length: 3319 seconds
#
# Revision: 0
# Processed by: cddbd v1.5.1PL0 Copyright (c) Steve Scherf et al.
# Submitted via: CDex 1.51
#
DISCID=cc0cf50e
DTITLE=E-ROTIC - SEXUAL MADNESS
DYEAR=1997
DGENRE=Dance
TTITLE0=SEXUAL MADNESS
TTITLE1=TURN ME ON
TTITLE2=SAVE ME
TTITLE3=GIVE ME DELIGHT
TTITLE4=DON'T SAY WE'RE THROUGH
TTITLE5=ALL I DESIRE
TTITLE6=I WANT YOU
TTITLE7=GOTTA GEI IT GROVIN'
TTITLE8=SHENANDOAH
TTITLE9=SEND ME A MESSAGE OF LOVE
TTITLE10=IS IT YOU
TTITLE11=WHEN I CRY FOR YOU
TTITLE12=LAY ME DOWN
TTITLE13=DREAMS NEVER DIE
EXTD=YEAR: 1997
EXTT0=
EXTT1=
EXTT2=
EXTT3=
EXTT4=
EXTT5=
EXTT6=
EXTT7=
EXTT8=
EXTT9=
EXTT10=
EXTT11=
EXTT12=
EXTT13=
PLAYORDER=
